<?xml version="1.0" standalone="no"?>
<!DOCTYPE svg PUBLIC "-//W3C//DTD SVG 20010904//EN"
 "http://www.w3.org/TR/2001/REC-SVG-20010904/DTD/svg10.dtd">
<svg version="1.0" xmlns="http://www.w3.org/2000/svg"
 width="1080.000000pt" height="1080.000000pt" viewBox="0 0 1080.000000 1080.000000"
 preserveAspectRatio="xMidYMid meet">

<g transform="translate(0.000000,1080.000000) scale(0.100000,-0.100000)"
fill="#32a89e" stroke="none">
<path d="M5123 10516 c-88 -17 -186 -48 -267 -85 -79 -36 -3605 -2141 -3672
-2192 -216 -166 -355 -421 -395 -727 -6 -52 -6 -800 1 -2267 10 -1823 14
-2205 26 -2279 32 -195 138 -366 299 -481 69 -49 3762 -2110 3874 -2163 40
-18 117 -45 170 -60 87 -23 114 -26 281 -26 169 0 193 2 282 26 53 15 134 44
180 66 78 36 3524 2088 3653 2175 198 133 366 380 435 638 33 122 34 232 21
2448 -13 2099 -10 2028 -64 2186 -75 220 -250 447 -447 581 -88 60 -3595 2018
-3718 2076 -137 65 -251 90 -432 94 -104 2 -179 -1 -227 -10z m392 -125 c50
-10 124 -32 165 -48 83 -34 3675 -2034 3755 -2091 63 -46 225 -202 225 -217 0
-7 -157 -107 -349 -223 l-348 -210 -94 92 c-52 51 -119 109 -149 129 -84 54
-2904 1625 -2996 1668 -91 44 -212 75 -324 85 -160 14 -375 -35 -520 -118 -41
-24 -704 -419 -1474 -878 -870 -520 -1423 -856 -1464 -890 -58 -48 -144 -148
-177 -205 -10 -16 -48 2 -372 181 -199 109 -362 202 -363 205 0 4 19 34 41 68
49 73 146 174 209 218 71 48 3538 2117 3606 2151 190 96 421 126 629 83z m5
-987 c36 -9 92 -29 125 -44 74 -33 2895 -1606 2985 -1663 178 -115 324 -328
359 -522 15 -85 35 -3406 21 -3495 -31 -194 -131 -372 -275 -489 -71 -58
-2925 -1764 -3005 -1797 -106 -43 -180 -57 -295 -57 -130 0 -214 18 -330 73
-44 21 -757 416 -1585 878 -1356 756 -1511 845 -1567 899 -78 75 -128 174
-143 283 -13 92 -29 3509 -18 3618 12 107 62 248 119 335 73 111 145 172 361
300 106 63 765 457 1465 875 1339 799 1336 797 1494 822 71 11 208 4 289 -16z
m3877 -1912 c20 -13 45 -141 47 -242 l1 -95 -25 0 c-25 0 -25 2 -31 95 -3 52
-11 123 -18 157 -17 79 -8 107 26 85z m-8010 -157 c5 -9 4 -51 -4 -98 -6 -45
-12 -117 -12 -159 -1 -76 -2 -78 -26 -78 l-25 0 0 108 c0 117 15 223 33 234
18 11 25 10 34 -7z m8067 -598 c7 -170 1 -196 -37 -181 -15 5 -17 26 -17 174
0 169 3 185 36 173 7 -2 13 -63 18 -166z m-8079 -162 c0 -163 -1 -170 -20
-170 -19 0 -20 9 -28 158 -5 87 -6 165 -3 173 4 9 15 14 28 12 23 -3 23 -4 23
-173z m8083 -443 l2 -173 -22 3 c-23 3 -23 6 -29 163 -6 163 -1 189 30 183 14
-3 16 -27 19 -176z m-8068 -137 c3 -88 4 -166 1 -173 -2 -7 -13 -12 -25 -10
-20 3 -21 10 -27 163 -3 88 -4 166 -1 173 2 7 14 12 26 10 20 -3 21 -9 26
-163z m8068 -287 c18 -18 17 -334 -1 -341 -33 -13 -39 9 -44 173 -5 133 -4
164 8 171 18 12 23 11 37 -3z m-8072 -146 c7 -4 14 -69 18 -168 5 -132 4 -163
-7 -173 -8 -6 -22 -9 -31 -5 -14 5 -16 28 -16 173 0 180 3 195 36 173z m8089
-464 c3 -13 4 -90 3 -173 -3 -137 -5 -150 -22 -153 -10 -2 -22 2 -27 10 -10
15 -12 322 -2 331 15 15 43 6 48 -15z m-8062 -223 c4 -49 6 -126 5 -170 -3
-69 -6 -80 -22 -83 -10 -2 -22 2 -27 10 -5 7 -9 86 -9 176 l0 163 23 -3 c20
-3 23 -10 30 -93z m8070 -508 c5 -87 6 -165 3 -173 -4 -9 -15 -14 -28 -12 -23
3 -23 6 -26 163 -1 87 0 165 3 173 3 7 13 12 22 10 16 -3 19 -22 26 -161z
m-8062 -17 c4 -14 7 -91 8 -172 l1 -148 -24 0 c-13 0 -27 7 -30 16 -8 22 -8
319 1 328 14 13 37 1 44 -24z m8067 -592 c-3 -165 -4 -173 -23 -173 -19 0 -20
8 -25 163 -3 89 -3 167 -2 172 2 6 15 10 28 10 l24 0 -2 -172z m-8050 -151 c2
-146 0 -168 -13 -174 -9 -3 -21 -1 -26 4 -12 12 -25 302 -16 328 4 10 15 15
29 13 23 -3 23 -5 26 -171z m7990 -285 c4 -28 -43 -131 -100 -217 -32 -49 -48
-65 -65 -65 -35 0 -29 32 18 102 23 33 57 94 76 135 25 55 39 73 51 71 9 -2
18 -13 20 -26z m-7887 -213 c25 -48 60 -106 77 -130 31 -42 42 -89 21 -89 -26
0 -50 25 -99 101 -61 94 -95 172 -86 194 13 34 42 8 87 -76z m7524 -244 c0
-26 -264 -189 -289 -179 -41 16 -11 47 119 125 131 79 170 91 170 54z m-7064
-192 c115 -64 139 -81 137 -98 -2 -11 -10 -21 -19 -23 -20 -4 -279 137 -286
155 -7 17 4 43 17 43 6 0 74 -35 151 -77z m6543 -89 c40 -16 14 -43 -121 -123
-75 -45 -143 -81 -152 -79 -9 2 -17 13 -19 24 -3 18 20 35 135 103 76 44 139
81 140 81 1 0 8 -3 17 -6z m-6020 -200 c102 -57 136 -81 136 -95 0 -11 -7 -22
-15 -25 -8 -3 -77 28 -155 71 -120 66 -140 80 -140 101 0 38 26 30 174 -52z
m5521 -129 c0 -14 -34 -39 -130 -97 -138 -82 -175 -94 -175 -55 0 18 26 37
128 99 131 79 177 93 177 53z m-5000 -158 c99 -55 131 -78 133 -95 6 -38 -33
-27 -175 51 -110 59 -133 76 -133 95 0 37 36 27 175 -51z m4489 -133 c3 -9 4
-20 1 -24 -3 -5 -66 -46 -141 -90 -135 -82 -169 -92 -162 -48 2 16 37 42 133
99 72 43 137 78 146 79 9 0 20 -7 23 -16z m-3974 -151 c115 -64 140 -82 138
-98 -2 -11 -11 -21 -20 -23 -20 -4 -278 137 -285 156 -7 16 4 42 16 42 6 0 74
-35 151 -77z m3459 -147 c6 -7 9 -20 6 -27 -7 -18 -248 -160 -281 -167 -20 -4
-24 0 -24 21 0 22 19 36 137 106 75 45 140 81 144 81 3 0 12 -6 18 -14z
m-2929 -146 c98 -54 130 -76 130 -91 0 -11 -7 -22 -15 -25 -22 -9 -295 144
-295 165 0 46 16 42 180 -49z m2423 -163 c3 -8 2 -19 -2 -26 -13 -21 -274
-169 -288 -164 -7 3 -13 15 -13 27 0 16 29 38 128 98 126 76 165 90 175 65z
m-1908 -120 c96 -53 131 -78 133 -93 5 -34 -22 -35 -85 -1 -219 118 -223 120
-223 144 0 38 34 28 175 -50z m1390 -197 c0 -22 -15 -32 -114 -82 -122 -62
-175 -78 -194 -59 -19 19 4 42 68 65 33 12 94 40 135 63 84 47 105 49 105 13z
m-945 -49 c25 -14 86 -39 135 -56 71 -25 90 -35 90 -51 0 -29 -36 -29 -123 1
-148 49 -233 110 -191 135 14 9 24 6 89 -29z"/>
<path d="M4983 7488 c-32 -8 -63 -49 -63 -82 0 -11 -18 -16 -67 -21 -495 -47
-913 -443 -1118 -1059 -73 -216 -125 -506 -125 -688 l0 -68 -190 0 -190 0 0
80 0 79 96 3 c86 3 97 5 104 23 9 28 -210 764 -231 776 -10 5 -22 4 -32 -4
-10 -7 -48 -122 -94 -279 -43 -147 -81 -268 -84 -268 -6 0 -99 155 -99 165 0
3 24 5 53 5 52 0 77 12 77 36 0 7 -31 67 -70 134 -38 67 -70 124 -70 126 0 2
18 4 41 4 49 0 79 15 79 38 0 9 -49 100 -108 202 -143 246 -128 246 -268 5
-59 -103 -104 -191 -104 -206 0 -31 15 -39 75 -39 l43 0 -69 -120 c-50 -85
-69 -129 -67 -148 3 -26 6 -27 65 -30 l62 -3 -47 -80 -47 -80 -27 88 c-15 48
-34 113 -43 145 -16 57 -35 75 -62 59 -18 -10 -172 -517 -173 -567 0 -39 11
-44 96 -44 l64 0 0 -50 0 -49 -102 -3 -103 -3 0 -30 0 -30 3205 0 3205 0 0 30
0 30 -97 3 -98 3 0 39 0 40 75 0 c112 0 111 -10 12 325 l-83 280 -30 0 c-32 0
-26 14 -89 -199 l-27 -89 -44 74 c-24 41 -44 77 -44 81 0 4 28 8 62 10 51 2
63 6 66 21 2 10 -28 74 -67 143 -39 68 -71 126 -71 129 0 3 22 5 48 5 50 0 72
13 71 39 0 9 -49 99 -108 201 -91 155 -112 185 -133 188 -23 3 -35 -13 -132
-182 -80 -137 -107 -193 -104 -213 3 -27 6 -28 60 -31 l57 -3 -70 -120 c-49
-84 -69 -129 -67 -147 3 -26 6 -27 65 -30 l61 -3 -51 -89 c-28 -49 -52 -88
-54 -86 -2 2 -37 117 -78 257 -41 140 -79 264 -85 277 -6 14 -18 22 -34 22
-29 0 -19 28 -151 -423 -53 -181 -95 -338 -93 -350 3 -21 9 -22 106 -25 l102
-3 0 -69 0 -70 -183 0 -184 0 -6 128 c-24 485 -205 964 -485 1281 l-49 57 123
158 c68 87 127 169 130 182 13 50 -14 99 -61 112 -63 18 -82 2 -210 -162 -66
-85 -124 -155 -128 -156 -4 0 -34 17 -65 39 -75 50 -181 103 -262 129 -140 46
-217 52 -645 52 l-402 0 -32 45 c-18 25 -33 45 -34 45 -1 0 -16 4 -32 8 -17 5
-45 5 -62 0z m176 -218 c68 -88 126 -160 128 -160 2 0 31 18 63 40 344 234
729 233 1077 -1 39 -27 74 -53 78 -59 3 -5 12 -10 18 -10 7 0 73 79 147 175
103 133 140 175 158 175 12 0 22 -2 22 -4 0 -2 2 -11 6 -19 4 -12 -57 -95
-269 -365 -7 -9 5 -28 45 -70 215 -227 377 -555 457 -923 26 -121 51 -323 51
-411 l0 -68 -351 2 -351 3 -208 514 c-115 283 -214 519 -219 524 -5 5 -16 7
-23 4 -8 -3 -102 -239 -208 -526 l-195 -521 -478 0 -479 0 7 98 c38 550 226
1018 532 1328 56 58 64 70 54 85 -6 10 -60 81 -119 156 -59 76 -111 143 -115
150 -11 19 4 43 27 43 15 0 54 -42 145 -160z m-111 -67 l99 -128 -75 -85
c-292 -333 -461 -781 -498 -1322 l-6 -98 -451 0 -450 0 6 113 c30 553 268
1096 609 1386 154 131 334 219 506 246 165 25 146 33 260 -112z m442 99 c-36
-16 -91 -45 -123 -66 -33 -20 -63 -36 -67 -34 -9 4 -100 114 -100 122 0 3 80
6 178 6 l177 -1 -65 -27z m-2780 -1617 l0 -115 -125 0 -125 0 0 50 0 50 63 0
c80 0 91 8 84 56 -3 22 -8 47 -12 57 -6 15 0 17 54 17 l61 0 0 -115z m226 99
c-3 -8 -1 -24 4 -35 10 -17 22 -19 115 -19 l105 0 0 -80 0 -80 -190 0 -190 0
0 115 0 115 81 0 c70 0 80 -2 75 -16z m5074 -109 l0 -105 -185 0 -185 0 0 70
0 69 108 3 107 3 0 33 0 32 77 0 78 0 0 -105z m190 99 c0 -3 -5 -25 -11 -50
-16 -62 -4 -74 77 -74 l64 0 0 -40 0 -40 -125 0 -125 0 0 105 0 105 60 0 c33
0 60 -3 60 -6z"/>
<path d="M2530 4989 c-75 -15 -163 -64 -219 -124 -197 -209 -139 -546 117
-672 75 -37 78 -38 191 -38 106 0 121 2 175 28 104 48 192 139 211 220 l7 27
-56 0 c-55 0 -56 -1 -75 -39 -23 -43 -64 -82 -125 -114 -34 -18 -57 -22 -136
-22 -80 0 -102 4 -138 23 -66 35 -119 88 -149 150 -24 49 -28 69 -28 142 0 70
5 95 26 141 62 133 201 204 347 178 91 -17 181 -81 214 -155 10 -21 18 -24 65
-24 62 0 64 5 28 77 -76 152 -270 238 -455 202z"/>
<path d="M3560 4989 c-75 -15 -163 -64 -219 -124 -200 -212 -137 -553 126
-678 64 -30 74 -32 183 -32 109 0 118 2 181 32 84 41 161 118 202 202 30 63
32 72 32 181 0 109 -2 119 -32 183 -85 178 -277 274 -473 236z m202 -115 c133
-43 224 -208 197 -358 -14 -78 -40 -128 -95 -182 -64 -61 -138 -87 -234 -82
-121 7 -211 67 -265 175 -25 50 -29 69 -29 143 0 101 20 154 85 225 89 97 202
123 341 79z"/>
<path d="M6560 4989 c-75 -15 -163 -64 -219 -124 -200 -212 -137 -553 126
-678 64 -30 74 -32 183 -32 109 0 118 2 181 32 84 41 161 118 202 202 30 63
32 72 32 181 0 109 -2 119 -32 183 -85 178 -277 274 -473 236z m202 -115 c133
-43 224 -208 197 -358 -14 -78 -40 -128 -95 -182 -64 -61 -138 -87 -234 -82
-121 7 -211 67 -265 175 -25 50 -29 69 -29 143 0 101 20 154 85 225 89 97 202
123 341 79z"/>
<path d="M7487 4990 c-136 -34 -203 -149 -166 -284 18 -65 81 -118 195 -161
54 -21 116 -47 137 -57 72 -36 100 -126 55 -183 -68 -87 -245 -68 -293 32 -20
42 -21 42 -72 43 -58 0 -59 -2 -42 -61 18 -58 65 -108 133 -140 82 -39 195
-41 271 -5 94 43 143 129 132 229 -13 108 -80 169 -254 232 -125 45 -163 80
-163 149 0 134 224 154 278 26 17 -39 18 -40 70 -40 62 0 64 8 28 85 -25 54
-71 100 -124 122 -43 18 -138 24 -185 13z"/>
<path d="M4350 4571 l0 -411 55 0 55 0 2 302 3 302 124 -197 124 -197 41 0 41
0 128 202 127 202 0 -307 0 -307 55 0 55 0 0 410 0 410 -52 0 -53 0 -151 -240
-152 -239 -149 237 -150 237 -51 3 -52 3 0 -410z"/>
<path d="M5490 4570 l0 -410 55 0 55 0 0 149 0 149 113 3 c98 4 119 8 169 32
91 45 138 122 138 229 0 115 -65 207 -169 243 -33 11 -87 15 -203 15 l-158 0
0 -410z m333 296 c121 -50 125 -224 7 -283 -36 -19 -61 -23 -137 -23 l-93 0 0
160 0 160 95 0 c58 0 108 -5 128 -14z"/>
<path d="M8120 4570 l0 -410 240 0 240 0 0 50 0 50 -185 0 -185 0 0 135 0 135
150 0 150 0 0 50 0 50 -150 0 -150 0 0 125 0 125 185 0 185 0 0 50 0 50 -240
0 -240 0 0 -410z"/>
<path d="M4080 3658 c-78 -30 -169 -123 -199 -203 -33 -87 -27 -216 14 -298
35 -70 97 -130 173 -165 49 -23 70 -27 152 -27 84 0 102 3 158 29 72 34 149
110 174 175 l16 41 -84 0 c-83 0 -86 -1 -112 -31 -103 -124 -317 -68 -351 90
-29 137 52 251 185 259 75 5 144 -22 171 -69 17 -29 19 -29 105 -29 l88 0 -15
38 c-38 91 -98 149 -194 189 -76 31 -202 31 -281 1z"/>
<path d="M4907 3663 c-4 -7 -238 -551 -284 -660 l-13 -33 82 0 83 0 30 75 30
75 146 0 147 0 29 -72 29 -73 83 -3 c53 -2 82 1 79 7 -1 6 -68 164 -148 351
l-145 340 -72 0 c-39 0 -74 -3 -76 -7z m80 -401 c-44 -2 -82 -1 -85 2 -2 3 6
29 18 58 13 29 32 73 42 98 l20 45 42 -100 42 -100 -79 -3z"/>
<path d="M5460 3320 l0 -350 80 0 80 0 2 200 3 200 75 -125 75 -125 52 0 51 0
74 121 73 121 3 -196 2 -196 80 0 80 0 0 350 0 350 -73 0 -73 0 -104 -171
c-57 -94 -107 -172 -111 -174 -3 -3 -53 73 -111 168 l-106 172 -76 3 -76 3 0
-351z"/>
<path d="M6380 3321 l0 -351 80 0 80 0 0 110 0 110 53 0 c174 0 292 118 274
272 -9 70 -50 135 -111 173 -49 30 -51 30 -213 33 l-163 3 0 -350z m315 167
c22 -26 26 -39 21 -67 -9 -55 -35 -74 -111 -79 l-65 -4 0 91 0 91 64 0 c60 0
66 -2 91 -32z"/>
</g>
</svg>
